<svg xmlns="http://www.w3.org/2000/svg" viewBox="0 0 210 210">
  <g transform="translate(656.17 87.842)">
    <rect x="-656.17" y="-87.842" width="210" height="210" ry="39.688" fill="#20a3a4"/>
    <path transform="matrix(.95094 .013064 -.014444 1.0514 0 0)" fill="#fff"
      d="m-575.01 41.892v-27.745h63.676v56.854q-18.284 12.462-32.384 17.011-14.009 4.4573-33.294 4.4573-23.742 0-38.752-8.096-14.918-8.096-23.196-24.106-8.187-16.01-8.187-36.75 0-21.832 9.0057-37.933 9.0057-16.192 26.38-24.561 13.554-6.4586 36.477-6.4586 22.105 0 33.021 4.0025 11.007 4.0025 18.193 12.462 7.2773 8.3689 10.916 21.286l-39.752 7.0954q-2.4561-7.5502-8.3689-11.553-5.8218-4.0025-14.918-4.0025-13.554 0-21.65 9.4605-8.005 9.3695-8.005 29.746 0 21.65 8.096 30.929 8.187 9.2786 22.742 9.2786 6.9134 0 13.19-2.0013 6.2767-2.0013 14.373-6.8225v-12.553z"/>
  </g>
</svg>
