<!-- assets/favicon.svg -->
<svg xmlns="http://www.w3.org/2000/svg" viewBox="0 0 127.22 127.22">
  <g transform="translate(389.89 7.4835)">
    <!-- fondo redondeado (negro tal como en tu archivo) -->
    <rect x="-389.86" y="-7.2618" width="126.95" height="126.95" ry="21.431"/>

    <!-- conjunto principal (colores y formas intactos) -->
    <g transform="matrix(1.2922 0 0 1.2922 95.377 -2.9998)">
      <path transform="matrix(1.6336 0 0 1.6336 -470 24.502)"
            d="m73.36 43.121h29.113a0.89205 0.89205 120.74 0 0 0.7838-1.318l-6.9725-12.831a2.5223 2.5223 30.74 0 0-2.2162-1.318h-12.411a2.5067 2.5067 149.1 0 0-2.209 1.3219l-6.8782 12.823a0.89758 0.89758 59.104 0 0 0.79098 1.3219z"
            fill="#999"/>
      <path d="m-290.96 73.246h-70.854a36.547 17.016 0 0 0 35.424 12.836 36.547 17.016 0 0 0 35.431-12.836z" fill="#b3b3b3"/>
      <path d="m-361.88 64.497c-3.3911 0-6.121 2.4393-6.121 5.4695 0 1.2359 0.45467 2.372 1.2218 3.2858h80.785c0.7673-0.91373 1.2218-2.0505 1.2218-3.2858 0-3.0303-2.7299-5.4695-6.121-5.4695z" fill="#fff"/>
      <g transform="matrix(1.272 0 0 1.272 88.664 -11.232)">
        <path d="m-304.9 55.752h-42.77c1.813 2.6046 4.8311 4.3035 8.2615 4.3035h26.247c3.4304 0 6.4485-1.6989 8.2615-4.3035z" fill="#ececec" stroke-width="1.4357"/>
        <path d="m-349.3 19.433c-0.10487 0.58134-0.15807 1.1834-0.15807 1.7957v28.788c0 2.1388 0.66115 4.1184 1.7931 5.7445h42.77c1.1319-1.6261 1.7944-3.6056 1.7944-5.7445v-28.788c0-0.61241-0.0563-1.2142-0.15936-1.7957zm5.7499 2.3017a2.5125 2.5125 0 0 1 2.5116 2.5131 2.5125 2.5125 0 0 1-2.5116 2.5116 2.5125 2.5125 0 0 1-2.513-2.5116 2.5125 2.5125 0 0 1 2.513-2.5131z" fill="#fff" stroke-width="1.4357"/>
        <path d="m-330.31 15.016c-0.98483 0-1.7771 0.79364-1.7771 1.7785 0 0.02313 6.1e-4 0.04575 1e-3 0.06837h-15.717c-0.98484 0-1.7785 0.79362-1.7785 1.7785 0 0.98484 0.79368 1.7771 1.7785 1.7771h43.036c0.98483 0 1.7785-0.79226 1.7785-1.7771 0-0.98487-0.79367-1.7785-1.7785-1.7785h-15.717c8.1e-4 -0.02313 1e-3 -0.04549 1e-3 -0.06837 0-0.98484-0.79225-1.7785-1.7771-1.7785z" fill="#ececec"/>
      </g>
    </g>
  </g>
</svg>
