<!-- /favicon.svg -->
<svg xmlns="http://www.w3.org/2000/svg" viewBox="0 0 127.22 127.22" width="32" height="32">
  <g transform="translate(389.89 7.4835)">
    <rect x="-389.86" y="-7.2618" width="126.95" height="126.95" ry="21.431" fill="#000000"/>
    <g transform="matrix(1.272 0 0 1.272 88.664 -15.466)">
      <g transform="translate(0 -.082682)">
        <path d="m-309.4 76.765c-5.3443 2.1224-11.851 2.5939-18.539 2.5938-5.4339-3.6e-4 -10.057-0.88643-15.231-2.4386l5.2238 9.2976-0.34259 11.549 25.809-0.0293-1.7732-11.213z" fill="#999999"/>
        <path d="m-298.43 69.822h-55.701a28.731 13.377 0 0 0 27.848 10.091 28.731 13.377 0 0 0 27.853-10.091z" fill="#b3b3b3"/>
      </g>
      <path d="m-354.19 62.861c-2.6659 0-4.8119 1.9176-4.8119 4.2998 0 0.97157 0.35743 1.8647 0.96052 2.5831h63.508c0.6032-0.71832 0.96052-1.612 0.96052-2.5831 0-2.3822-2.1461-4.2998-4.812-4.2998z" fill="#ffffff"/>
      <path d="m-304.9 55.752h-42.77c1.813 2.6046 4.8311 4.3035 8.2615 4.3035h26.247c3.4304 0 6.4485-1.6989 8.2615-4.3035z" fill="#ececec"/>
      <path d="m-349.3 19.433c-0.10487 0.58134-0.15807 1.1834-0.15807 1.7957v28.788c0 2.1388 0.66115 4.1184 1.7931 5.7445h42.77c1.1319-1.6261 1.7944-3.6056 1.7944-5.7445v-28.788c0-0.61241-0.0563-1.2142-0.15936-1.7957zm5.7499 2.3017a2.5125 2.5125 0 0 1 2.5116 2.5131 2.5125 2.5125 0 0 1-2.5116 2.5116 2.5125 2.5125 0 0 1-2.513-2.5116 2.5125 2.5125 0 0 1 2.513-2.5131z" fill="#ffffff"/>
      <path d="m-330.31 15.016c-0.98483 0-1.7771 0.79364-1.7771 1.7785 0 0.02313 6.1e-4 0.04575 1e-3 0.06837h-15.717c-0.98484 0-1.7785 0.79362-1.7785 1.7785 0 0.98484 0.79368 1.7771 1.7785 1.7771h43.036c0.98483 0 1.7785-0.79226 1.7785-1.7771 0-0.98487-0.79367-1.7785-1.7785-1.7785h-15.717c8.1e-4 -0.02313 1e-3 -0.04549 1e-3 -0.06837 0-0.98484-0.79225-1.7785-1.7771-1.7785z" fill="#ececec"/>
    </g>
  </g>
</svg>
