<svg xmlns="http://www.w3.org/2000/svg" aria-hidden="true">
  <symbol id="gb-logo-pin" viewBox="0 0 210 210">
    <g transform="translate(389.89 7.4835)">
      <g transform="matrix(1.0885 0 0 1.0885 22.695 1.1917)">
        <!-- Punta del pin -->
        <path d="m-313.68 128.86 9.7468 16.977 20.552 38.243 20.678-35.754 11.248-19.64c-22.258 14.762-43.203 12.145-62.235 0.0385z" fill="#f29416"/>
        
        <!-- Fondo circular de tres franjas -->
        <g transform="matrix(.7648 0 0 .7648 -362.88 -7.4835)">
          <path d="m203.99 140h-197.99a105 105 0 0 0 98.995 70 105 105 0 0 0 98.995-70z" fill="#f29416"/>
          <path d="m203.99 70h-197.99a105 105 0 0 0-6.0048 35 105 105 0 0 0 6.0048 35h197.99a105 105 0 0 0 6.0053-35 105 105 0 0 0-6.0053-35z" fill="#3589ca"/>
          <path d="m6.0048 70h197.99a105 105 0 0 0-98.995-70 105 105 0 0 0-98.995 70z" fill="#55ce36"/>
        </g>

        <!-- Ícono de baño blanco -->
        <g transform="matrix(3.319 0 0 3.319 302.11 -510.09)" fill="#fff">
          <path d="m-169.59 189.74c-2.0793 0.82577-4.6109 1.0092-7.213 1.0092-2.1141-1.4e-4 -3.913-0.34488-5.9257-0.94879l2.0324 3.6174-0.13329 4.4933 10.041-0.0114-0.68988-4.3625z"/>
          <path d="m-165.33 185.81h-21.671a11.178 5.2044 0 0 0 10.835 3.9261 11.178 5.2044 0 0 0 10.837-3.9261z"/>
          <path transform="matrix(4.4787 0 0 4.4787 -523.46 -326.32)" d="m75.12 113.51c-0.23158 0-0.41801 0.16658-0.41801 0.37352 0 0.0844 0.03105 0.16199 0.08344 0.22439h5.5169c0.0524-0.0624 0.08344-0.14003 0.08344-0.22439 0-0.20694-0.18643-0.37352-0.41801-0.37352z"/>
          <path d="m-167.84 179.33h-16.64c0.70538 1.0134 1.8796 1.6743 3.2143 1.6743h10.212c1.3346 0 2.5089-0.66097 3.2143-1.6743z"/>
          <path d="m-185.12 164.14v11.9c0 0.832 0.257 1.602 0.698 2.235h16.64c0.441-0.633 0.698-1.403 0.698-2.235v-11.9zm2.237 0.896a0.978 0.978 0 1 1 0 1.955 0.978 0.978 0 0 1 0-1.955z"/>
          <path d="m-177.73 160.98c-0.383 0-0.691 0.309-0.691 0.692v0.027h-6.115c-0.383 0-0.692 0.309-0.692 0.692s0.309 0.691 0.692 0.691h16.744c0.383 0 0.692-0.308 0.692-0.691s-0.309-0.692-0.692-0.692h-6.115v-0.027c0-0.383-0.308-0.692-0.691-0.692z"/>
        </g>
      </g>
    </g>
  </symbol>
</svg>
