<!-- /favicon.svg -->
<svg xmlns="http://www.w3.org/2000/svg" viewBox="0 0 127.22 127.22" width="32" height="32">
  <g transform="translate(389.89 7.4835)">
    <g transform="matrix(1.1461 0 0 1.1461 47.68 -.023407)">
      <!-- Fondo turquesa -->
      <ellipse cx="-326.28" cy="48.991" rx="52.812" ry="53.863" fill="#29C3C4"/>
      <!-- WC blanco -->
      <g transform="translate(-4.5879e-5 -7.1356)" fill="#ffffff">
        <path d="m-311.55 79.212c-4.6629 1.8518-10.34 2.2632-16.176 2.2631-4.7411-3.14e-4 -8.775-0.77341-13.289-2.1277l4.5578 8.1121-0.29891 10.076 22.518-0.02557-1.5471-9.7831z"/>
        <path d="m-301.98 70.385h-48.599a25.068 11.671 0 0 0 24.297 8.8045 25.068 11.671 0 0 0 24.302-8.8045z"/>
        <path d="m-350.63 62.003c-2.326 0-4.1984 1.6731-4.1984 3.7516 0 0.8477 0.31186 1.627 0.83805 2.2537h55.411c0.52629-0.62673 0.83805-1.4064 0.83805-2.2537 0-2.0785-1.8724-3.7516-4.1984-3.7516z"/>
        <path d="m-307.62 55.872h-37.317c1.5818 2.2725 4.2152 3.7548 7.2082 3.7548h22.9c2.993 0 5.6263-1.4823 7.2082-3.7548z"/>
        <path d="m-346.37 21.803c-0.0915 0.50722-0.13791 1.0325-0.13791 1.5667v25.117c0 1.8661 0.57685 3.5933 1.5645 5.0121h37.317c0.9876-1.4188 1.5656-3.1459 1.5656-5.0121v-25.117c0-0.53433-0.0491-1.0594-0.13904-1.5667zm5.0168 2.0083a2.1921 2.1921 0 0 1 2.1914 2.1927 2.1921 2.1921 0 0 1-2.1914 2.1914 2.1921 2.1921 0 0 1-2.1926-2.1914 2.1921 2.1921 0 0 1 2.1926-2.1927z"/>
        <path d="m-329.79 14.717c-0.85927 0-1.5505 0.69246-1.5505 1.5517 0 0.02018 5.4e-4 0.03992 1e-3 0.05965h-13.713c-0.85928 0-1.5518 0.69243-1.5518 1.5517 0 0.85928 0.69248 1.5505 1.5518 1.5505h37.549c0.85927 0 1.5518-0.69124 1.5518-1.5505 0-0.8593-0.69248-1.5517-1.5518-1.5517h-13.713c7.1e-4 -0.02018 1e-3 -0.03969 1e-3 -0.05965 0-0.85928-0.69124-1.5517-1.5505-1.5517z"/>
      </g>
    </g>
  </g>
</svg>
