<!-- 0 iCon -->
<!--  GB - GoBathroom icon  -->
<!-- assets/svg/logo.svg -->
<svg xmlns="http://www.w3.org/2000/svg" style="display:none">
  <symbol id="gb-marker" viewBox="0 0 127.22 127.22" aria-hidden="true">
    <g transform="translate(389.89 7.4835)">
      <!-- Fondo del marcador (negro por defecto) -->
      <g class="bg" transform="matrix(1.7899 0 0 1.7899 -7.7612 -282.85)"
         fill="var(--gb-bg, #111111)">
        <path d="m-195.33 192.61 5.4454 9.4846 11.482 21.366 11.553-19.975 6.2839-10.973c-12.435 8.2475-24.137 6.7852-34.77 0.0215z"/>
        <ellipse cx="-177.95" cy="185.39" rx="29.506" ry="30.093"/>
      </g>

      <!-- Icono del WC (blanco por defecto) -->
      <g class="wc" transform="matrix(2.2426 0 0 2.2426 68.774 -346.29)"
         fill="var(--gb-wc, #ffffff)">
        <path d="m-169.59 189.74c-2.0793 0.82577-4.6109 1.0092-7.213 1.0092-2.1141-1.4e-4 -3.913-0.34488-5.9257-0.94879l2.0324 3.6174-0.13329 4.4933 10.041-0.0114-0.68988-4.3625z" stroke-width=".52889"/>
        <path d="m-165.33 185.81h-21.671a11.178 5.2044 0 0 0 10.835 3.9261 11.178 5.2044 0 0 0 10.837-3.9261z"/>
        <path transform="matrix(4.4787 0 0 4.4787 -523.46 -326.32)" d="m75.12 113.51c-0.23158 0-0.41801 0.16658-0.41801 0.37352 0 0.0844 0.03105 0.16199 0.08344 0.22439h5.5169c0.0524-0.0624 0.08344-0.14003 0.08344-0.22439 0-0.20694-0.18643-0.37352-0.41801-0.37352z"/>
        <path d="m-167.84 179.33h-16.64c0.70538 1.0134 1.8796 1.6743 3.2143 1.6743h10.212c1.3346 0 2.5089-0.66097 3.2143-1.6743z" stroke-width=".55858"/>
        <path d="m-185.12 164.14c-0.0408 0.22618-0.0615 0.46042-0.0615 0.69864v11.2c0 0.83215 0.25723 1.6023 0.69763 2.235h16.64c0.44039-0.63266 0.69815-1.4028 0.69815-2.235v-11.2c0-0.23827-0.0219-0.47242-0.062-0.69864zm2.2371 0.89553a0.97751 0.97751 0 0 1 0.9772 0.97775 0.97751 0.97751 0 0 1-0.9772 0.97717 0.97751 0.97751 0 0 1-0.97772-0.97717 0.97751 0.97751 0 0 1 0.97772-0.97775z" stroke-width=".55858"/>
        <path d="m-177.73 160.98c-0.38317 0-0.69141 0.30878-0.69141 0.69195 0 9e-3 2.4e-4 0.0178 5.6e-4 0.0266h-6.115c-0.38317 0-0.69196 0.30877-0.69196 0.69195 0 0.38317 0.30879 0.69141 0.69196 0.69141h16.744c0.38317 0 0.69196-0.30824 0.69196-0.69141 0-0.38318-0.30879-0.69195-0.69196-0.69195h-6.115c3.2e-4 -9e-3 5.6e-4 -0.0177 5.6e-4 -0.0266 0-0.38317-0.30824-0.69195-0.69141-0.69195z"/>
      </g>
    </g>
  </symbol>
</svg>
