<svg width="127.22mm" height="127.22mm" version="1.1" viewBox="0 0 127.22 127.22" xmlns="http://www.w3.org/2000/svg">
  <g transform="translate(241.72 -416.09)">
    <g transform="matrix(1.7482 0 0 1.7482 129.86 165.98)" fill="#fff">
      <path d="m-169.59 189.74c-2.0793 0.82577-4.6109 1.0092-7.213 1.0092-2.1141-1.4e-4 -3.913-0.34488-5.9257-0.94879l2.0324 3.6174-0.13329 4.4933 10.041-0.0114-0.68988-4.3625z" stroke-width=".52889"/>
      <path d="m-165.33 185.81h-21.671a11.178 5.2044 0 0 0 10.835 3.9261 11.178 5.2044 0 0 0 10.837-3.9261z"/>
      <path transform="matrix(4.4787 0 0 4.4787 -523.46 -326.32)" d="m75.12 113.51c-0.23158 0-0.41801 0.16658-0.41801 0.37352 0 0.0844 0.03105 0.16199 0.08344 0.22439h5.5169c0.0524-0.0624 0.08344-0.14003 0.08344-0.22439 0-0.20694-0.18643-0.37352-0.41801-0.37352z"/>
      <path d="m-167.84 179.33h-16.64c0.70538 1.0134 1.8796 1.6743 3.2143 1.6743h10.212c1.3346 0 2.5089-0.66097 3.2143-1.6743z" stroke-width=".55858"/>
      <path d="m-182.59 166.68v-0.47759h1.0961v0.97867q-0.31474 0.21453-0.55745 0.29282-0.24114 0.0767-0.57311 0.0767-0.40869 0-0.66706-0.13936-0.2568-0.13937-0.3993-0.41496-0.14093-0.27559-0.14093-0.63261 0-0.37581 0.15502-0.65297 0.15503-0.27873 0.45411-0.42279 0.2333-0.11117 0.6279-0.11117 0.38051 0 0.56842 0.0689 0.18947 0.0689 0.31318 0.21453 0.12527 0.14406 0.18791 0.36641l-0.6843 0.12214q-0.0423-0.12997-0.14405-0.19886-0.10023-0.0689-0.25682-0.0689-0.2333 0-0.37267 0.16285-0.13779 0.16128-0.13779 0.51204 0 0.37268 0.13936 0.5324 0.14093 0.15971 0.39147 0.15971 0.11901 0 0.22705-0.0344t0.24741-0.11745v-0.21609zm1.4281-0.31474q0-0.56215 0.31317-0.87532 0.31318-0.31317 0.87219-0.31317 0.57311 0 0.88316 0.30847 0.31003 0.30691 0.31003 0.86123 0 0.40243-0.13623 0.6608-0.13467 0.25681-0.39147 0.40087-0.25523 0.14249-0.63731 0.14249-0.38834 0-0.64357-0.1237-0.25368-0.12371-0.41183-0.39147-0.15815-0.26777-0.15814-0.6702zm0.70934 3e-3q0 0.34762 0.1284 0.49951 0.12996 0.15189 0.35231 0.15189 0.22862 0 0.35389-0.14876t0.12527-0.53396q0-0.32414-0.13152-0.4729-0.12997-0.15032-0.3539-0.15032-0.21453 0-0.34449 0.15189t-0.12996 0.50265zm-4.6683-2.2297c-0.0408 0.22618-0.0615 0.46045-0.0615 0.69867v11.2c0 0.83215 0.25723 1.6023 0.69763 2.235h16.64c0.44039-0.63266 0.69814-1.4028 0.69814-2.235v-11.2c0-0.23827-0.0219-0.47245-0.062-0.69867z" display="none" stroke-width=".26724"/>
      <path d="m-185.12 164.14c-0.0408 0.22618-0.0615 0.46042-0.0615 0.69864v11.2c0 0.83215 0.25723 1.6023 0.69763 2.235h16.64c0.44039-0.63266 0.69815-1.4028 0.69815-2.235v-11.2c0-0.23827-0.0219-0.47242-0.062-0.69864zm2.2371 0.89553a0.97751 0.97751 0 0 1 0.9772 0.97775 0.97751 0.97751 0 0 1-0.9772 0.97717 0.97751 0.97751 0 0 1-0.97772-0.97717 0.97751 0.97751 0 0 1 0.97772-0.97775z" stroke-width=".55858"/>
      <path d="m-177.73 160.98c-0.38317 0-0.69141 0.30878-0.69141 0.69195 0 9e-3 2.4e-4 0.0178 5.6e-4 0.0266h-6.115c-0.38317 0-0.69196 0.30877-0.69196 0.69195 0 0.38317 0.30879 0.69141 0.69196 0.69141h16.744c0.38317 0 0.69196-0.30824 0.69196-0.69141 0-0.38318-0.30879-0.69195-0.69196-0.69195h-6.115c3.2e-4 -9e-3 5.6e-4 -0.0177 5.6e-4 -0.0266 0-0.38317-0.30824-0.69195-0.69141-0.69195z"/>
    </g>
  </g>
</svg>
